<svg xmlns="http://www.w3.org/2000/svg" viewBox="0 0 1020 500" width="24px" fill="#000000">
  <path d="M0 0 C0.99864075 0.00304138 1.99728149 0.00608276 3.02618408 0.00921631 C19.09591917 0.08128365 34.56463186 0.99777249 50.3125 4.4375 C51.85188232 4.76693604 51.85188232 4.76693604 53.42236328 5.10302734 C88.09446918 12.7116134 121.02450089 26.82391216 149.3125 48.4375 C149.87453125 48.85821777 150.4365625 49.27893555 151.015625 49.71240234 C160.72602014 56.98699735 169.57895485 65.02662278 178.3125 73.4375 C179.1065625 74.1903125 179.900625 74.943125 180.71875 75.71875 C185.55706554 80.40346822 189.82959501 85.481882 193.99511719 90.76953125 C194.91999076 91.940535 195.85087139 93.1068073 196.78613281 94.26953125 C220.28220155 123.52602108 236.41212456 157.77686474 245 194.25 C245.28556763 195.43686401 245.28556763 195.43686401 245.5769043 196.64770508 C249.54101721 214.32802902 250.867862 232.05042655 250.75 250.125 C250.74543793 251.62296112 250.74543793 251.62296112 250.74078369 253.15118408 C250.61076522 282.14299093 245.4889611 308.90811671 236.3125 336.4375 C412.8625 336.7675 589.4125 337.0975 771.3125 337.4375 C768.12660471 340.62339529 765.40736437 343.27546782 761.8984375 345.93359375 C761.06505859 346.56716797 760.23167969 347.20074219 759.37304688 347.85351562 C758.48681641 348.52060547 757.60058594 349.18769531 756.6875 349.875 C755.75744141 350.57947266 754.82738281 351.28394531 753.86914062 352.00976562 C747.11503406 357.11317405 740.30887947 362.14357495 733.47998047 367.14624023 C727.53773532 371.50836318 721.66604009 375.95722445 715.8125 380.4375 C708.42608208 386.09103395 700.98055534 391.65220194 693.4765625 397.1484375 C687.53578567 401.51027032 681.6649674 405.95804548 675.8125 410.4375 C668.42608208 416.09103395 660.98055534 421.65220194 653.4765625 427.1484375 C647.53578567 431.51027032 641.6649674 435.95804548 635.8125 440.4375 C628.42608208 446.09103395 620.98055534 451.65220194 613.4765625 457.1484375 C607.53578295 461.51027232 601.6650587 465.95816136 595.8125 470.4375 C577.35505688 484.55943948 577.35505688 484.55943948 568.69458675 490.63704181 C566.28164168 492.37455486 566.28164168 492.37455486 564.27911472 494.4731667 C554.99416039 502.96439466 544.11464246 501.54142337 532.22827148 501.42645264 C529.85387444 501.43280923 527.47948463 501.44266785 525.10511494 501.45571828 C519.95038708 501.47599505 514.79629823 501.47152265 509.64162445 501.44497681 C501.97555739 501.40560759 494.31000441 501.41226129 486.64387698 501.42797799 C473.73963869 501.45305675 460.83569314 501.44041439 447.93148804 501.4056015 C435.1406279 501.37110352 422.34989926 501.35152177 409.55899048 501.35227203 C408.76235654 501.35230262 407.96572261 501.3523332 407.14494825 501.35236471 C403.91076061 501.35252836 400.676573 501.35279082 397.44238538 501.35318796 C367.10132273 501.35681205 336.76045981 501.31704662 306.41946651 501.2554693 C279.51073499 501.20105823 252.60214547 501.17602074 225.69335938 501.17871094 C223.96777594 501.17887258 222.24219251 501.17903402 220.51660907 501.17919526 C219.23692373 501.17931736 219.23692373 501.17931736 217.93138616 501.17944193 C213.63613712 501.17984516 209.34088808 501.18020748 205.04563904 501.18052292 C204.19810892 501.18058977 203.35057881 501.18065663 202.47736596 501.18072551 C179.95375441 501.18219 157.43016049 501.16398885 134.90656376 501.13921666 C134.10404877 501.13833557 133.30153379 501.13745449 132.47470016 501.1365467 C129.24808424 501.13299407 126.02146832 501.12944029 122.79485252 501.12578288 C111.61220214 501.11319062 100.42956573 501.10711195 89.24690874 501.10533692 C74.81663463 501.10293705 60.38647719 501.08673858 45.95625269 501.04761109 C39.0061326 501.02908598 32.05614181 501.01640039 25.10599518 501.02198792 C18.72463711 501.02642046 12.34359154 501.01198118 5.96229851 500.98339382 C3.67213288 500.97623736 1.38193444 500.9755226 -0.90823185 500.98246297 C-53.68388716 501.12450347 -106.58725683 484.60440231 -148.6875 452.4375 C-149.24953125 452.01678223 -149.8115625 451.59606445 -150.390625 451.16259766 C-160.10102014 443.88800265 -168.95395485 435.84837722 -177.6875 427.4375 C-178.4815625 426.6846875 -179.275625 425.931875 -180.09375 425.15625 C-184.93206554 420.47153178 -189.20459501 415.393118 -193.37011719 410.10546875 C-194.29499076 408.934465 -195.22587139 407.7681927 -196.16113281 406.60546875 C-219.65720155 377.34897892 -235.78712456 343.09813526 -244.375 306.625 C-244.56537842 305.83375732 -244.75575684 305.04251465 -244.9519043 304.22729492 C-248.91601721 286.54697098 -250.242862 268.82457345 -250.125 250.75 C-250.12195862 249.75135925 -250.11891724 248.75271851 -250.11578369 247.72381592 C-250.04371635 231.65408083 -249.12722751 216.18536814 -245.6875 200.4375 C-245.46787598 199.41124512 -245.24825195 198.38499023 -245.02197266 197.32763672 C-237.4133866 162.65553082 -223.30108784 129.72549911 -201.6875 101.4375 C-201.26678223 100.87546875 -200.84606445 100.3134375 -200.41259766 99.734375 C-193.13800265 90.02397986 -185.09837722 81.17104515 -176.6875 72.4375 C-175.9346875 71.6434375 -175.181875 70.849375 -174.40625 70.03125 C-169.72153178 65.19293446 -164.643118 60.92040499 -159.35546875 56.75488281 C-158.184465 55.83000924 -157.0181927 54.89912861 -155.85546875 53.96386719 C-126.59897892 30.46779845 -92.34813526 14.33787544 -55.875 5.75 C-55.08375732 5.55962158 -54.29251465 5.36924316 -53.47729492 5.1730957 C-35.79697098 1.20898279 -18.07457345 -0.117862 0 0 Z M-119.6875 78.4375 C-120.27418457 78.85741211 -120.86086914 79.27732422 -121.46533203 79.70996094 C-131.659227 87.09801155 -140.81021396 95.53148488 -149.6875 104.4375 C-150.37070313 105.08589844 -151.05390625 105.73429687 -151.7578125 106.40234375 C-188.70913986 141.878428 -208.3377562 195.18583823 -209.68359375 245.73828125 C-210.20928498 299.76978211 -191.35602963 351.50045739 -154.640625 391.296875 C-153.05847392 393.03091258 -151.57803119 394.78449382 -150.125 396.625 C-147.54971083 399.5964875 -144.81267616 402.06973056 -141.8203125 404.609375 C-140.45645893 405.77839235 -139.11498652 406.97437986 -137.8046875 408.203125 C-125.00629311 420.1482931 -110.20868813 429.48014867 -94.6875 437.4375 C-93.67018799 437.96851318 -93.67018799 437.96851318 -92.63232422 438.51025391 C-44.40666549 463.46021233 12.8536523 466.29504421 64.3125 450.4375 C84.08562321 444.08955147 103.58167447 434.81539273 120.3125 422.4375 C120.83457031 422.05384277 121.35664063 421.67018555 121.89453125 421.27490234 C128.62826362 416.30148116 135.01465883 411.07115346 141.171875 405.390625 C142.90591258 403.80847392 144.65949382 402.32803119 146.5 400.875 C149.4714875 398.29971083 151.94473056 395.56267616 154.484375 392.5703125 C155.65339235 391.20645893 156.84937986 389.86498652 158.078125 388.5546875 C170.0232931 375.75629311 179.35514867 360.95868813 187.3125 345.4375 C187.84351318 344.42018799 187.84351318 344.42018799 188.38525391 343.38232422 C213.33521233 295.15666549 216.17004421 237.8963477 200.3125 186.4375 C193.96455147 166.66437679 184.69039273 147.16832553 172.3125 130.4375 C171.92884277 129.91542969 171.54518555 129.39335937 171.14990234 128.85546875 C166.17648116 122.12173638 160.94615346 115.73534117 155.265625 109.578125 C153.68347392 107.84408742 152.20303119 106.09050618 150.75 104.25 C148.17471083 101.2785125 145.43767616 98.80526944 142.4453125 96.265625 C141.08145893 95.09660765 139.73998652 93.90062014 138.4296875 92.671875 C125.63129311 80.7267069 110.83368813 71.39485133 95.3125 63.4375 C94.63429199 63.08349121 93.95608398 62.72948242 93.25732422 62.36474609 C26.58241342 27.86990878 -58.8755077 34.82174264 -119.6875 78.4375 Z M208.71435547 386.08984375 C207.77633731 388.16575429 206.95551309 390.24515204 206.1840477 392.38816833 C204.6994116 395.87909805 202.34265803 398.66209663 199.9375 401.5625 C199.21094365 402.46202896 199.21094365 402.46202896 198.4697094 403.37973022 C197.09719985 405.07692551 195.70669442 406.75808616 194.3125 408.4375 C193.83554687 409.01741699 193.35859375 409.59733398 192.8671875 410.19482422 C182.44146228 422.82625935 171.2807948 434.3895464 158.3125 444.4375 C156.97654449 445.49086258 155.64060839 446.54424977 154.3046875 447.59765625 C146.64677081 453.58697232 138.96257754 459.15055152 130.55859375 464.046875 C129.44677734 464.73523438 129.44677734 464.73523438 128.3125 465.4375 C128.3125 465.7675 128.3125 466.0975 128.3125 466.4375 C142.03032187 466.81057983 155.74691 467.09368097 169.46879864 467.26649475 C175.84293781 467.34950192 182.21357161 467.46179153 188.58569336 467.64453125 C194.75227785 467.82024061 200.91552408 467.91442024 207.08442116 467.95553589 C209.42048462 467.9847764 211.75639465 468.04187278 214.09100914 468.12918091 C232.01312671 468.77187582 241.75463966 464.51259119 254.99184608 452.47653198 C258.73224426 449.19004818 262.76508452 446.32976272 266.8125 443.4375 C273.54085272 438.51663483 280.19315519 433.50391934 286.8125 428.4375 C294.19600583 422.78619495 301.63837347 417.22690173 309.13964844 411.7331543 C316.06414455 406.6493744 322.89265992 401.44453328 329.71166992 396.22045898 C335.75850206 391.59594273 341.85961486 387.05606505 348.04785156 382.62231445 C349.48617445 381.58354836 350.90228503 380.51411573 352.3125 379.4375 C352.3125 379.1075 352.3125 378.7775 352.3125 378.4375 C334.6233179 378.06310853 316.9351686 377.78129663 299.24287605 377.60850525 C291.02710377 377.52612676 282.81379784 377.41391509 274.59960938 377.23046875 C267.43668919 377.07057703 260.27555493 376.96767762 253.11089981 376.93208408 C249.31889671 376.91128384 245.53200032 376.86274101 241.741642 376.74581909 C222.53720592 375.19553286 222.53720592 375.19553286 208.71435547 386.08984375 Z M404.19096243 390.79674315 C401.73151678 392.94496407 399.15866356 394.87480096 396.53125 396.8125 C394.95738685 398.01960027 393.38444656 399.22790491 391.8125 400.4375 C384.42753204 406.09290297 376.98051745 411.6522297 369.4765625 417.1484375 C362.63725923 422.16998575 355.89460329 427.31286687 349.15722656 432.4699707 C343.33672363 436.91711468 337.47061334 441.29505224 331.5625 445.625 C325.21170734 450.28358145 318.89421229 454.98204345 312.625 459.75 C311.88733398 460.30776123 311.14966797 460.86552246 310.38964844 461.44018555 C308.67802937 462.74782127 306.99215103 464.08904777 305.3125 465.4375 C305.3125 465.7675 305.3125 466.0975 305.3125 466.4375 C333.87296432 466.80361463 362.43314862 467.0862219 390.99550344 467.25454527 C394.37827242 467.2745532 397.76103676 467.29526269 401.14379883 467.31640625 C402.15384038 467.3227017 402.15384038 467.3227017 403.18428681 467.32912433 C414.04429296 467.39848088 424.90292445 467.52448012 435.7621189 467.67194474 C446.92994647 467.8223196 458.09730962 467.90940088 469.26616079 467.94291592 C475.52970619 467.96367046 481.79014943 468.01198675 488.05269432 468.12918091 C520.12081887 470.21794303 520.12081887 470.21794303 547.64872265 456.66493225 C548.92970422 455.29333857 550.18548272 453.89764683 551.41129494 452.47653198 C554.75917819 448.88594559 558.80043111 446.23192775 562.8125 443.4375 C564.37786546 442.29558439 565.94071771 441.15020825 567.5 440 C568.28375 439.4225 569.0675 438.845 569.875 438.25 C574.21865481 435.02010284 578.51421352 431.72739082 582.8125 428.4375 C590.19600583 422.78619495 597.63837347 417.22690173 605.13964844 411.7331543 C612.06414455 406.6493744 618.89265992 401.44453328 625.71166992 396.22045898 C631.75850206 391.59594273 637.85961486 387.05606505 644.04785156 382.62231445 C645.48617445 381.58354836 646.90228503 380.51411573 648.3125 379.4375 C648.3125 379.1075 648.3125 378.7775 648.3125 378.4375 C619.7178654 378.11727954 591.12344444 377.86993369 562.5273659 377.72258539 C559.14202029 377.70507806 555.75667822 377.68695729 552.37133789 377.66845703 C551.69745224 377.66478469 551.02356658 377.66111234 550.32926015 377.65732871 C539.45514228 377.59661134 528.58207352 377.48634341 517.70857551 377.35736085 C506.52941335 377.22587062 495.35060627 377.14960485 484.17066222 377.12026107 C477.89967915 377.10208681 471.63106533 377.05971016 465.36084557 376.95727921 C459.44458324 376.86142415 453.53163878 376.83309802 447.61467361 376.85399246 C445.45680566 376.85017694 443.29881341 376.8228103 441.14162254 376.76862335 C425.19700613 376.38814398 416.15788762 380.24679719 404.19096243 390.79674315 Z " transform="translate(249.6875,-0.4375)"/>
  <path d="M0 0 C1.30904297 0.54333984 1.30904297 0.54333984 2.64453125 1.09765625 C17.92070117 8.0200374 28.96936076 20.64037835 35.22265625 36.00390625 C40.9177972 51.33383762 41.75184605 69.83601789 35 85 C34.63777344 85.87269531 34.27554688 86.74539063 33.90234375 87.64453125 C26.9799626 102.92070117 14.35962165 113.96936076 -1.00390625 120.22265625 C-16.33383762 125.9177972 -34.83601789 126.75184605 -50 120 C-50.87269531 119.63777344 -51.74539063 119.27554688 -52.64453125 118.90234375 C-67.92070117 111.9799626 -78.96936076 99.35962165 -85.22265625 83.99609375 C-90.9177972 68.66616238 -91.75184605 50.16398211 -85 35 C-84.63777344 34.12730469 -84.27554687 33.25460937 -83.90234375 32.35546875 C-76.9799626 17.07929883 -64.35962165 6.03063924 -48.99609375 -0.22265625 C-33.66616238 -5.9177972 -15.16398211 -6.75184605 0 0 Z M-44.5546875 46.90234375 C-48.67977895 52.88930081 -48.71608142 58.94935212 -48 66 C-46.20848377 72.7125165 -41.54731955 77.08105214 -36 81 C-30.26904305 83.92915577 -22.93576854 84.08336486 -16.7578125 82.3828125 C-10.58552614 79.66892783 -5.78231505 74.63592271 -2.828125 68.609375 C-0.92194143 62.60309848 -0.93561313 55.49708442 -3.5 49.6875 C-6.98462138 43.74752263 -12.4345583 39.08364317 -19 37 C-30.43445097 35.64363754 -37.17817489 38.27353946 -44.5546875 46.90234375 Z " transform="translate(396,255)"/>
  <path d="M0 0 C1.30904297 0.54333984 1.30904297 0.54333984 2.64453125 1.09765625 C17.92070117 8.0200374 28.96936076 20.64037835 35.22265625 36.00390625 C40.9177972 51.33383762 41.75184605 69.83601789 35 85 C34.63777344 85.87269531 34.27554688 86.74539063 33.90234375 87.64453125 C26.9799626 102.92070117 14.35962165 113.96936076 -1.00390625 120.22265625 C-16.33383762 125.9177972 -34.83601789 126.75184605 -50 120 C-50.87269531 119.63777344 -51.74539062 119.27554688 -52.64453125 118.90234375 C-67.92070117 111.9799626 -78.96936076 99.35962165 -85.22265625 83.99609375 C-90.9177972 68.66616238 -91.75184605 50.16398211 -85 35 C-84.63777344 34.12730469 -84.27554688 33.25460937 -83.90234375 32.35546875 C-76.9799626 17.07929883 -64.35962165 6.03063924 -48.99609375 -0.22265625 C-33.66616238 -5.9177972 -15.16398211 -6.75184605 0 0 Z M-44.5546875 46.90234375 C-48.67977895 52.88930081 -48.71608142 58.94935212 -48 66 C-46.22657567 72.64472914 -41.5533353 77.17367959 -36 81 C-30.00112996 83.94062257 -23.1171647 84.09883788 -16.6875 82.3828125 C-10.55867139 79.67750925 -5.76047208 74.59136305 -2.828125 68.609375 C-0.92194143 62.60309848 -0.93561313 55.49708442 -3.5 49.6875 C-6.98462138 43.74752263 -12.4345583 39.08364317 -19 37 C-30.43445097 35.64363754 -37.17817489 38.27353946 -44.5546875 46.90234375 Z " transform="translate(275,327)"/>
  <path d="M0 0 C1.30904297 0.54333984 1.30904297 0.54333984 2.64453125 1.09765625 C17.92070117 8.0200374 28.96936076 20.64037835 35.22265625 36.00390625 C40.9177972 51.33383762 41.75184605 69.83601789 35 85 C34.63777344 85.87269531 34.27554688 86.74539063 33.90234375 87.64453125 C26.9799626 102.92070117 14.35962165 113.96936076 -1.00390625 120.22265625 C-16.33383762 125.9177972 -34.83601789 126.75184605 -50 120 C-50.87269531 119.63777344 -51.74539062 119.27554688 -52.64453125 118.90234375 C-67.92070117 111.9799626 -78.96936076 99.35962165 -85.22265625 83.99609375 C-90.9177972 68.66616238 -91.75184605 50.16398211 -85 35 C-84.63777344 34.12730469 -84.27554688 33.25460937 -83.90234375 32.35546875 C-76.9799626 17.07929883 -64.35962165 6.03063924 -48.99609375 -0.22265625 C-33.66616238 -5.9177972 -15.16398211 -6.75184605 0 0 Z M-44.5546875 46.90234375 C-48.67977895 52.88930081 -48.71608142 58.94935212 -48 66 C-46.22657567 72.64472914 -41.5533353 77.17367959 -36 81 C-30.00112996 83.94062257 -23.1171647 84.09883788 -16.6875 82.3828125 C-10.55867139 79.67750925 -5.76047208 74.59136305 -2.828125 68.609375 C-0.92194143 62.60309848 -0.93561313 55.49708442 -3.5 49.6875 C-6.98462138 43.74752263 -12.4345583 39.08364317 -19 37 C-30.43445097 35.64363754 -37.17817489 38.27353946 -44.5546875 46.90234375 Z " transform="translate(159,258)"/>
  <path d="M0 0 C1.30904297 0.54333984 1.30904297 0.54333984 2.64453125 1.09765625 C17.92070117 8.0200374 28.96936076 20.64037835 35.22265625 36.00390625 C40.9177972 51.33383762 41.75184605 69.83601789 35 85 C34.63777344 85.87269531 34.27554688 86.74539063 33.90234375 87.64453125 C26.9799626 102.92070117 14.35962165 113.96936076 -1.00390625 120.22265625 C-16.33383762 125.9177972 -34.83601789 126.75184605 -50 120 C-50.87269531 119.63777344 -51.74539062 119.27554688 -52.64453125 118.90234375 C-67.92070117 111.9799626 -78.96936076 99.35962165 -85.22265625 83.99609375 C-90.9177972 68.66616238 -91.75184605 50.16398211 -85 35 C-84.63777344 34.12730469 -84.27554688 33.25460938 -83.90234375 32.35546875 C-76.9799626 17.07929883 -64.35962165 6.03063924 -48.99609375 -0.22265625 C-33.66616238 -5.9177972 -15.16398211 -6.75184605 0 0 Z M-44.5546875 46.90234375 C-48.67977895 52.88930081 -48.71608142 58.94935212 -48 66 C-46.22657567 72.64472914 -41.5533353 77.17367959 -36 81 C-30.00112996 83.94062257 -23.1171647 84.09883788 -16.6875 82.3828125 C-10.55867139 79.67750925 -5.76047208 74.59136305 -2.828125 68.609375 C-0.92194143 62.60309848 -0.93561313 55.49708442 -3.5 49.6875 C-6.98462138 43.74752263 -12.4345583 39.08364317 -19 37 C-30.43445097 35.64363754 -37.17817489 38.27353946 -44.5546875 46.90234375 Z " transform="translate(275,190)"/>
  <path d="M0 0 C1.30904297 0.54333984 1.30904297 0.54333984 2.64453125 1.09765625 C17.92070117 8.0200374 28.96936076 20.64037835 35.22265625 36.00390625 C40.9177972 51.33383762 41.75184605 69.83601789 35 85 C34.63777344 85.87269531 34.27554688 86.74539062 33.90234375 87.64453125 C26.9799626 102.92070117 14.35962165 113.96936076 -1.00390625 120.22265625 C-16.33383762 125.9177972 -34.83601789 126.75184605 -50 120 C-50.87269531 119.63777344 -51.74539062 119.27554688 -52.64453125 118.90234375 C-67.92070117 111.9799626 -78.96936076 99.35962165 -85.22265625 83.99609375 C-90.9177972 68.66616238 -91.75184605 50.16398211 -85 35 C-84.63777344 34.12730469 -84.27554688 33.25460938 -83.90234375 32.35546875 C-76.9799626 17.07929883 -64.35962165 6.03063924 -48.99609375 -0.22265625 C-33.66616238 -5.9177972 -15.16398211 -6.75184605 0 0 Z M-44.5546875 46.90234375 C-48.67977895 52.88930081 -48.71608142 58.94935212 -48 66 C-46.22657567 72.64472914 -41.5533353 77.17367959 -36 81 C-30.00112996 83.94062257 -23.1171647 84.09883788 -16.6875 82.3828125 C-10.55867139 79.67750925 -5.76047208 74.59136305 -2.828125 68.609375 C-0.92194143 62.60309848 -0.93561313 55.49708442 -3.5 49.6875 C-6.98462138 43.74752263 -12.4345583 39.08364317 -19 37 C-30.43445097 35.64363754 -37.17817489 38.27353946 -44.5546875 46.90234375 Z " transform="translate(156,123)"/>
  <path d="M0 0 C1.30904297 0.54333984 1.30904297 0.54333984 2.64453125 1.09765625 C17.92070117 8.0200374 28.96936076 20.64037835 35.22265625 36.00390625 C40.9177972 51.33383762 41.75184605 69.83601789 35 85 C34.63777344 85.87269531 34.27554688 86.74539062 33.90234375 87.64453125 C26.9799626 102.92070117 14.35962165 113.96936076 -1.00390625 120.22265625 C-16.33383762 125.9177972 -34.83601789 126.75184605 -50 120 C-50.87269531 119.63777344 -51.74539063 119.27554688 -52.64453125 118.90234375 C-67.92070117 111.9799626 -78.96936076 99.35962165 -85.22265625 83.99609375 C-90.9177972 68.66616238 -91.75184605 50.16398211 -85 35 C-84.63777344 34.12730469 -84.27554687 33.25460938 -83.90234375 32.35546875 C-76.9799626 17.07929883 -64.35962165 6.03063924 -48.99609375 -0.22265625 C-33.66616238 -5.9177972 -15.16398211 -6.75184605 0 0 Z M-44.5546875 46.90234375 C-48.67977895 52.88930081 -48.71608142 58.94935212 -48 66 C-46.22657567 72.64472914 -41.5533353 77.17367959 -36 81 C-30.00112996 83.94062257 -23.1171647 84.09883788 -16.6875 82.3828125 C-10.55867139 79.67750925 -5.76047208 74.59136305 -2.828125 68.609375 C-0.92194143 62.60309848 -0.93561313 55.49708442 -3.5 49.6875 C-6.98462138 43.74752263 -12.4345583 39.08364317 -19 37 C-30.43445097 35.64363754 -37.17817489 38.27353946 -44.5546875 46.90234375 Z " transform="translate(395,120)"/>
  <path d="M0 0 C1.30904297 0.54333984 1.30904297 0.54333984 2.64453125 1.09765625 C17.92070117 8.0200374 28.96936076 20.64037835 35.22265625 36.00390625 C40.9177972 51.33383762 41.75184605 69.83601789 35 85 C34.63777344 85.87269531 34.27554688 86.74539062 33.90234375 87.64453125 C26.9799626 102.92070117 14.35962165 113.96936076 -1.00390625 120.22265625 C-16.33383762 125.9177972 -34.83601789 126.75184605 -50 120 C-50.87269531 119.63777344 -51.74539062 119.27554688 -52.64453125 118.90234375 C-67.92070117 111.9799626 -78.96936076 99.35962165 -85.22265625 83.99609375 C-90.9177972 68.66616238 -91.75184605 50.16398211 -85 35 C-84.63777344 34.12730469 -84.27554688 33.25460938 -83.90234375 32.35546875 C-76.9799626 17.07929883 -64.35962165 6.03063924 -48.99609375 -0.22265625 C-33.66616238 -5.9177972 -15.16398211 -6.75184605 0 0 Z M-44.5546875 46.90234375 C-48.67977895 52.88930081 -48.71608142 58.94935212 -48 66 C-46.22657567 72.64472914 -41.5533353 77.17367959 -36 81 C-30.00112996 83.94062257 -23.1171647 84.09883788 -16.6875 82.3828125 C-10.55867139 79.67750925 -5.76047208 74.59136305 -2.828125 68.609375 C-0.92194143 62.60309848 -0.93561313 55.49708442 -3.5 49.6875 C-6.98462138 43.74752263 -12.4345583 39.08364317 -19 37 C-30.43445097 35.64363754 -37.17817489 38.27353946 -44.5546875 46.90234375 Z " transform="translate(275,53)"/>
  <path d="M0 0 C5.74782763 -0.29592776 12.024303 0.77337213 16.51953125 4.5703125 C21.3705055 10.10613018 22.20926855 15.33504674 22.2890625 22.46875 C22.30605698 23.25361786 22.32305145 24.03848572 22.34056091 24.84713745 C22.39348002 27.34332337 22.43389759 29.83949477 22.47265625 32.3359375 C22.51664902 34.83943866 22.56337708 37.34281471 22.61546326 39.84616089 C22.64730902 41.40085398 22.67423341 42.95565745 22.69569397 44.51052856 C22.75604783 47.6619508 22.90645477 50.19983306 23.91015625 53.2109375 C26.22015625 53.5409375 28.53015625 53.8709375 30.91015625 54.2109375 C30.91015625 57.5109375 30.91015625 60.8109375 30.91015625 64.2109375 C23.32015625 64.2109375 15.73015625 64.2109375 7.91015625 64.2109375 C7.86117187 60.94832031 7.8121875 57.68570313 7.76171875 54.32421875 C7.70769054 51.16019145 7.65039021 47.99623913 7.59277344 44.83227539 C7.55451885 42.63539224 7.51965985 40.4384472 7.48828125 38.24145508 C7.44255465 35.08131818 7.38457207 31.921606 7.32421875 28.76171875 C7.31266754 27.78133133 7.30111633 26.80094391 7.28921509 25.79084778 C7.23072493 19.24234511 7.23072493 19.24234511 4.91015625 13.2109375 C0.21708625 10.75266274 -4.09349381 10.86729758 -9.08984375 12.2109375 C-12.55240169 13.60248146 -12.55240169 13.60248146 -15.08984375 16.2109375 C-17.53055649 23.24349964 -17.35529201 30.14296839 -17.27734375 37.5234375 C-17.27669922 38.70228516 -17.27605469 39.88113281 -17.27539062 41.09570312 C-17.35037932 47.25270253 -17.35037932 47.25270253 -16.08984375 53.2109375 C-14.10984375 53.5409375 -12.12984375 53.8709375 -10.08984375 54.2109375 C-10.08984375 57.5109375 -10.08984375 60.8109375 -10.08984375 64.2109375 C-19.98984375 64.2109375 -29.88984375 64.2109375 -40.08984375 64.2109375 C-40.08984375 60.9109375 -40.08984375 57.6109375 -40.08984375 54.2109375 C-37.77984375 53.5509375 -35.46984375 52.8909375 -33.08984375 52.2109375 C-33.08984375 39.3409375 -33.08984375 26.4709375 -33.08984375 13.2109375 C-35.06984375 13.2109375 -37.04984375 13.2109375 -39.08984375 13.2109375 C-40.08984375 12.2109375 -40.08984375 12.2109375 -40.22265625 10.1796875 C-40.22007812 9.365 -40.2175 8.5503125 -40.21484375 7.7109375 C-40.21742188 6.89625 -40.22 6.0815625 -40.22265625 5.2421875 C-40.08984375 3.2109375 -40.08984375 3.2109375 -39.08984375 2.2109375 C-36.22716808 2.13768582 -33.38912475 2.11855545 -30.52734375 2.1484375 C-29.72103516 2.15294922 -28.91472656 2.15746094 -28.08398438 2.16210938 C-26.08590619 2.17393232 -24.08786592 2.19186836 -22.08984375 2.2109375 C-22.08984375 4.5209375 -22.08984375 6.8309375 -22.08984375 9.2109375 C-21.48398437 8.72882813 -20.878125 8.24671875 -20.25390625 7.75 C-13.50798563 2.66461369 -8.28326004 0.83606737 0 0 Z " transform="translate(768.08984375,264.7890625)"/>
  <path d="M0 0 C5.72651824 5.58400308 7.95020408 12.17257428 9 20 C9 23.3 9 26.6 9 30 C-6.51 30 -22.02 30 -38 30 C-36.17760418 41.10339802 -36.17760418 41.10339802 -32.3125 45.125 C-23.76930051 49.96077329 -15.29715466 49.5415119 -6 47 C-6 45.35 -6 43.7 -6 42 C-1.71 42 2.58 42 7 42 C7.23323195 45.17195446 7.42110266 47.87952134 7 51 C2.79186992 55.84572555 -3.76224782 58.04428421 -10 59 C-22.53846379 59.88087636 -33.23368909 59.88921593 -43.375 51.6875 C-49.93842885 45.42842369 -52.25981763 39.01883745 -53 30 C-53.11785411 18.37172796 -51.19835884 8.35631747 -43.05859375 -0.30859375 C-31.28685237 -9.98063173 -11.59360827 -9.56350387 0 0 Z M-34.4375 8.375 C-37.19019823 12.99953302 -38 15.48917186 -38 21 C-27.11 21 -16.22 21 -5 21 C-6.47236392 11.40212425 -6.47236392 11.40212425 -12 5 C-19.82572637 1.97954421 -28.23048317 2.32713745 -34.4375 8.375 Z " transform="translate(646,272)"/>
  <path d="M0 0 C5.79387544 6.14544555 6.35744864 13.80713493 6.2421875 21.89453125 C6.2393576 22.66007324 6.23652771 23.42561523 6.23361206 24.21435547 C6.22253148 26.62874849 6.19745101 29.04275279 6.171875 31.45703125 C6.16182948 33.10676543 6.1527064 34.75650549 6.14453125 36.40625 C6.12263212 40.42332393 6.08818825 44.44011198 6.046875 48.45703125 C8.356875 48.78703125 10.666875 49.11703125 13.046875 49.45703125 C13.046875 52.42703125 13.046875 55.39703125 13.046875 58.45703125 C7.766875 58.45703125 2.486875 58.45703125 -2.953125 58.45703125 C-3.613125 56.47703125 -4.273125 54.49703125 -4.953125 52.45703125 C-6.190625 53.60171875 -6.190625 53.60171875 -7.453125 54.76953125 C-15.44273485 61.23468681 -24.19027326 61.30470878 -34.05224609 60.67285156 C-39.40895142 60.06466668 -42.74423577 57.75891196 -46.390625 53.83203125 C-49.82868465 48.60618058 -49.39460558 43.5895979 -48.953125 37.45703125 C-47.33189943 32.67868221 -45.21098414 30.14133375 -40.953125 27.45703125 C-30.61613796 22.95219643 -20.04041264 23.31508873 -8.953125 23.45703125 C-9.04046473 21.37292467 -9.14864778 19.28968456 -9.265625 17.20703125 C-9.32363281 16.046875 -9.38164063 14.88671875 -9.44140625 13.69140625 C-9.9810855 10.28030384 -10.4405304 8.7961505 -12.953125 6.45703125 C-18.81016881 4.6753431 -24.31670424 5.37400619 -29.953125 7.45703125 C-30.283125 9.10703125 -30.613125 10.75703125 -30.953125 12.45703125 C-35.243125 12.45703125 -39.533125 12.45703125 -43.953125 12.45703125 C-43.953125 8.82703125 -43.953125 5.19703125 -43.953125 1.45703125 C-30.76614205 -5.70161664 -13.0620985 -10.31905781 0 0 Z M-33.734375 35.90625 C-36.2336444 39.0864101 -36.42351792 41.45869146 -35.953125 45.45703125 C-34.33612981 48.57786599 -34.33612981 48.57786599 -30.953125 50.45703125 C-24.28590128 51.55707534 -18.43930542 50.8927221 -12.4765625 47.72265625 C-10.5367182 46.11109329 -9.81670234 44.82763571 -8.953125 42.45703125 C-8.71282541 39.86548206 -8.71282541 39.86548206 -8.828125 37.20703125 C-8.85519531 35.86898437 -8.85519531 35.86898437 -8.8828125 34.50390625 C-8.90601563 33.8284375 -8.92921875 33.15296875 -8.953125 32.45703125 C-22.01653701 31.6040908 -22.01653701 31.6040908 -33.734375 35.90625 Z " transform="translate(708.953125,270.54296875)"/>
  <path d="M0 0 C0 3.63 0 7.26 0 11 C-4.29 11 -8.58 11 -13 11 C-13.33 9.35 -13.66 7.7 -14 6 C-19.80482212 3.85473965 -24.92495087 3.62284078 -31 5 C-33.34047454 6.93358244 -33.34047454 6.93358244 -33.4375 10.375 C-33.36702891 14.01731965 -33.36702891 14.01731965 -31.08984375 15.984375 C-26.24243443 19.14652824 -20.90662996 20.87657152 -15.48046875 22.82421875 C-8.35239658 25.51466403 -2.99933391 28.68860322 1 35.3125 C2.61318367 41.26111479 2.08444667 45.78939717 -0.625 51.3125 C-4.77326905 56.00659392 -9.831453 58.68485212 -16.13134766 59.16113281 C-36.37501489 59.53352969 -36.37501489 59.53352969 -44 56 C-45.19625 55.505 -46.3925 55.01 -47.625 54.5 C-50.52426581 51.44814125 -50.35396729 50.35137919 -50.375 46.25 C-50.25125 44.5175 -50.1275 42.785 -50 41 C-45.38 41 -40.76 41 -36 41 C-36 42.98 -36 44.96 -36 47 C-32.11871739 47.89233226 -28.41792524 48.22486607 -24.4375 48.3125 C-23.32246094 48.34988281 -22.20742188 48.38726562 -21.05859375 48.42578125 C-17.93900365 48.2175591 -17.93900365 48.2175591 -15.53515625 46.35546875 C-13.74460041 44.04389389 -13.74460041 44.04389389 -13.86328125 40.96484375 C-14.76114884 37.79674727 -14.76114884 37.79674727 -17.66796875 36.12890625 C-19.41013672 35.35353516 -19.41013672 35.35353516 -21.1875 34.5625 C-22.46098992 33.9714671 -23.73442583 33.38031781 -25.0078125 32.7890625 C-26.33845785 32.19252134 -27.66918728 31.59616769 -29 31 C-31.53350147 29.83780848 -34.05000503 28.64429424 -36.5625 27.4375 C-37.67753906 26.92058594 -38.79257812 26.40367187 -39.94140625 25.87109375 C-44.04018013 23.36367014 -46.8234503 20.3530994 -49 16 C-49.52940021 10.68864048 -49.66363629 6.32727259 -47.25 1.5 C-35.50290716 -11.55232538 -13.50629201 -8.90187428 0 0 Z " transform="translate(855,272)"/>
  <path d="M0 0 C7.59 0 15.18 0 23 0 C23.495 36.63 23.495 36.63 24 74 C27.465 74.495 27.465 74.495 31 75 C31 78.3 31 81.6 31 85 C20.77 85 10.54 85 0 85 C0 81.7 0 78.4 0 75 C3.465 74.01 3.465 74.01 7 73 C7 52.87 7 32.74 7 12 C4.69 11.34 2.38 10.68 0 10 C0 6.7 0 3.4 0 0 Z " transform="translate(556,244)"/>
  <path d="M0 0 C2.93902349 -0.13481759 5.87189559 -0.23399416 8.8125 -0.3125 C10.06256836 -0.3753418 10.06256836 -0.3753418 11.33789062 -0.43945312 C13.66145599 -0.48611106 15.72570306 -0.48493084 18 0 C20.07421875 2.51953125 20.07421875 2.51953125 21 5 C21.9075 4.360625 22.815 3.72125 23.75 3.0625 C29.73909628 -0.73827264 35.03074796 -0.08296729 42 0 C42 3.63 42 7.26 42 11 C41.04738281 11.01417969 40.09476563 11.02835937 39.11328125 11.04296875 C37.85902344 11.09066406 36.60476563 11.13835937 35.3125 11.1875 C33.45044922 11.23970703 33.45044922 11.23970703 31.55078125 11.29296875 C27.07508747 12.1841685 25.79431124 13.42791515 23 17 C22.56051133 19.85601476 22.40980013 22.09053457 22.51171875 24.92578125 C22.51879349 25.67337204 22.52586823 26.42096283 22.53315735 27.19120789 C22.56102355 29.56601402 22.62373868 31.93841351 22.6875 34.3125 C22.71259332 35.92770018 22.73540469 37.54293754 22.75585938 39.15820312 C22.81082353 43.10638819 22.89703473 47.05278689 23 51 C24.98 51.33 26.96 51.66 29 52 C29 55.3 29 58.6 29 62 C19.1 62 9.2 62 -1 62 C-1 58.7 -1 55.4 -1 52 C1.31 51.34 3.62 50.68 6 50 C6 37.46 6 24.92 6 12 C3.03 11.505 3.03 11.505 0 11 C0 7.37 0 3.74 0 0 Z " transform="translate(509,267)"/>
  <path d="M0 0 C5.61 0 11.22 0 17 0 C13.64593288 8.3851678 9.41826158 17.49810706 3 24 C-1.70366587 25.58617789 -5.25223212 25.30946501 -10 24 C-8.36368504 18.6776703 -6.16119959 13.69018424 -3.875 8.625 C-3.50246094 7.79355469 -3.12992188 6.96210938 -2.74609375 6.10546875 C-1.83327074 4.06917127 -0.9169848 2.03442674 0 0 Z " transform="translate(625,238)"/>
</svg>